HIERARCHY
ROOT Hips
{
	OFFSET -3.958830 18.904000 13.208200
	CHANNELS 6 Xposition Yposition Zposition Zrotation Yrotation Xrotation 
	JOINT LHipJoint
	{
		OFFSET 0.000000 0.000000 0.000000
		CHANNELS 3 Zrotation Yrotation Xrotation
		JOINT LeftUpLeg
		{
			OFFSET 1.800000 -1.400000 0.085000
			CHANNELS 3 Zrotation Yrotation Xrotation
			JOINT LeftLeg
			{
				OFFSET 2.215000 -6.000000 0.000000
				CHANNELS 3 Zrotation Yrotation Xrotation
				JOINT LeftFoot
				{
					OFFSET 2.500000 -6.900000 0.000000
					CHANNELS 3 Zrotation Yrotation Xrotation
					JOINT LeftToeBase
					{
						OFFSET 0.200000 -0.500000 1.950000
						CHANNELS 3 Zrotation Yrotation Xrotation
						End Site
						{
							OFFSET 0.000000 0.000000 0.000000
						}
					}
				}
			}
		}
	}
	JOINT RHipJoint
	{
		OFFSET 0.000000 0.000000 0.000000
		CHANNELS 3 Zrotation Yrotation Xrotation
		JOINT RightUpLeg
		{
			OFFSET -1.800000 -1.400000 0.085000
			CHANNELS 3 Zrotation Yrotation Xrotation
			JOINT RightLeg
			{
				OFFSET -2.215000 -6.000000 0.000000
				CHANNELS 3 Zrotation Yrotation Xrotation
				JOINT RightFoot
				{
					OFFSET -2.500000 -6.900000 0.000000
					CHANNELS 3 Zrotation Yrotation Xrotation
					JOINT RightToeBase
					{
						OFFSET -0.200000 -0.500000 1.950000
						CHANNELS 3 Zrotation Yrotation Xrotation
						End Site
						{
							OFFSET 0.000000 0.000000 0.000000
						}
					}
				}
			}
		}
	}
	JOINT LowerBack
	{
		OFFSET 0.000000 0.000000 0.000000
		CHANNELS 3 Zrotation Yrotation Xrotation
		JOINT Spine
		{
			OFFSET -0.087000 1.940000 -0.288900
			CHANNELS 3 Zrotation Yrotation Xrotation
			JOINT Spine1
			{
				OFFSET 0.000000 1.950000 0.060000
				CHANNELS 3 Zrotation Yrotation Xrotation
				JOINT Neck
				{
					OFFSET 0.000000 0.000000 0.000000
					CHANNELS 3 Zrotation Yrotation Xrotation
					JOINT Neck1
					{
						OFFSET 0.000000 1.600000 0.340000
						CHANNELS 3 Zrotation Yrotation Xrotation
						JOINT Head
						{
							OFFSET 0.000000 1.667000 -0.240000
							CHANNELS 3 Zrotation Yrotation Xrotation
							End Site
							{
								OFFSET 0.000000 0.000000 0.000000
							}
						}
					}
				}
				JOINT LeftShoulder
				{
					OFFSET 0.000000 0.000000 0.000000
					CHANNELS 3 Zrotation Yrotation Xrotation
					JOINT LeftArm
					{
						OFFSET 2.700000 1.550000 -0.730000
						CHANNELS 3 Zrotation Yrotation Xrotation
						JOINT LeftForeArm
						{
							OFFSET 5.450000 0.000000 0.000000
							CHANNELS 3 Zrotation Yrotation Xrotation
							JOINT LeftHand
							{
								OFFSET 3.450000 0.000000 0.000000
								CHANNELS 3 Zrotation Yrotation Xrotation
								JOINT LeftHandIndex1
								{
									OFFSET 0.750000 0.000000 0.000000
									CHANNELS 3 Zrotation Yrotation Xrotation
									End Site
									{
										OFFSET 0.000000 0.000000 0.000000
									}
								}
							}
						}
					}
				}
				JOINT RightShoulder
				{
					OFFSET 0.000000 0.000000 0.000000
					CHANNELS 3 Zrotation Yrotation Xrotation
					JOINT RightArm
					{
						OFFSET -2.700000 1.550000 -0.730000
						CHANNELS 3 Zrotation Yrotation Xrotation
						JOINT RightForeArm
						{
							OFFSET -5.450000 0.000000 0.000000
							CHANNELS 3 Zrotation Yrotation Xrotation
							JOINT RightHand
							{
								OFFSET -3.450000 0.000000 0.000000
								CHANNELS 3 Zrotation Yrotation Xrotation
								JOINT RightHandIndex1
								{
									OFFSET -0.750000 0.000000 0.000000
									CHANNELS 3 Zrotation Yrotation Xrotation
									End Site
									{
										OFFSET 0.000000 0.000000 0.000000
									}
								}
							}
						}
					}
				}
			}
		}
	}
}
MOTION
Frames: 4
Frame Time: 0.016667
0.105650 16.912130 -2.817700 -2.713166 -7.969540 5.589217 -14.985415 12.922481 2.593190 9.773090 -0.871113 -10.277165 -9.126386 6.011764 8.789975 -0.080247 4.432607 3.323038 -0.059460 -0.363710 -0.075520 18.462195 -11.165620 2.559636 -6.947217 0.799532 -12.532490 9.932098 -5.812417 12.707418 0.106477 -4.019645 3.185077 -0.098330 0.650690 0.214380 -4.030130 -0.478069 -6.516298 8.461316 1.571964 0.196734 -3.211821 1.155455 4.411164 1.542154 -1.160996 -6.226318 -2.682773 1.792704 28.766383 -1.710780 1.353920 8.917080 -20.823941 -3.190608 1.483632 -56.884797 -6.876481 0.057460 -11.508468 -5.737196 -0.263190 -4.269257 3.045790 -0.080780 0.508000 -0.446580 0.191510 17.805367 4.379412 2.957392 62.384179 3.893437 -4.530563 11.143216 12.542340 -0.525196 2.477920 -1.556829 -0.231690 0.046510 0.065910 0.006170 
0.101420 16.910120 -2.816310 -2.602804 -7.794500 5.591655 -14.993838 12.946795 2.584135 9.634002 -0.880646 -10.352895 -8.894353 5.978214 8.949632 -0.091667 4.407798 3.324808 -0.059030 -0.362670 -0.078930 18.453463 -11.162116 2.559077 -6.914720 0.772909 -12.451982 9.775659 -5.755096 12.557567 0.110191 -3.998954 3.192642 -0.097930 0.649100 0.213600 -4.005279 -0.524185 -6.509210 8.234162 1.507238 0.202514 -3.077046 1.092488 4.361719 1.471558 -1.234180 -6.207736 -2.814973 1.891851 28.715304 -1.494300 1.259030 8.721300 -20.571862 -2.999309 1.436648 -57.306024 -6.932185 0.098451 -11.353175 -5.675440 -0.278129 -4.272199 3.044091 -0.077900 0.504790 -0.447950 0.186040 17.711204 4.242793 2.918840 62.445649 3.870872 -4.557770 11.234334 12.577489 -0.514561 2.474867 -1.551019 -0.230070 0.046940 0.073260 0.005060 
0.101570 16.910450 -2.811180 -2.436390 -7.474146 5.493958 -14.998900 12.989431 2.575297 9.397241 -0.884837 -10.330944 -8.517747 5.913647 9.106045 -0.112949 4.379098 3.338976 -0.068110 -0.376780 -0.073590 18.444268 -11.173312 2.546002 -7.006680 0.752685 -12.465334 9.580209 -5.770804 12.840242 0.114768 -3.992575 3.193178 -0.100500 0.649960 0.202480 -3.985464 -0.582474 -6.499764 8.147849 1.347617 0.247391 -3.028026 0.951523 4.389414 1.438793 -1.327217 -6.234631 -3.017079 1.937758 28.830871 -1.634230 1.340510 8.653950 -20.338088 -2.947372 1.458308 -57.587437 -6.885374 0.067632 -11.519955 -5.707158 -0.282347 -4.271131 3.023389 -0.065460 0.501370 -0.449340 0.179130 17.547890 4.228955 2.918982 62.513718 3.893903 -4.590732 11.275251 12.543298 -0.505247 2.474813 -1.535163 -0.246380 0.060870 0.078920 -0.003680 
0.097310 16.909800 -2.800990 -2.435406 -7.221623 5.545295 -15.004748 12.998863 2.566505 9.391626 -0.893119 -10.296164 -8.380123 5.885110 9.058544 -0.127950 4.406439 3.347107 -0.098840 -0.420060 -0.094770 18.442079 -11.168755 2.532318 -6.944497 0.770939 -12.557685 9.524648 -5.808634 13.117801 0.138913 -4.021101 3.189234 -0.109870 0.687820 0.201220 -3.976815 -0.608275 -6.472404 8.127037 1.192490 0.125254 -2.958185 0.778689 4.366233 1.389193 -1.368054 -6.112812 -3.002006 1.982208 28.213888 -1.838470 1.410720 9.231280 -20.194533 -2.537860 1.365973 -57.830562 -6.688440 -0.047278 -11.832353 -5.909528 -0.287631 -4.304650 3.019989 -0.080710 0.530320 -0.484820 0.176050 17.508545 3.794884 2.749885 62.399970 3.854546 -4.578262 11.645753 12.518926 -0.499890 2.466310 -1.541079 -0.270540 0.069420 0.100230 -0.005790 
